<svg id="visual" viewBox="0 0 1920 1080" width="1920" height="1080" xmlns="http://www.w3.org/2000/svg" xmlns:xlink="http://www.w3.org/1999/xlink" version="1.1"><rect x="0" y="0" width="1920" height="1080" fill="#FFFFF0"></rect><defs><linearGradient id="grad1_0" x1="43.8%" y1="100%" x2="100%" y2="0%"><stop offset="14.444444444444446%" stop-color="#fffff0" stop-opacity="1"></stop><stop offset="85.55555555555554%" stop-color="#fffff0" stop-opacity="1"></stop></linearGradient></defs><defs><linearGradient id="grad2_0" x1="0%" y1="100%" x2="56.3%" y2="0%"><stop offset="14.444444444444446%" stop-color="#fffff0" stop-opacity="1"></stop><stop offset="85.55555555555554%" stop-color="#fffff0" stop-opacity="1"></stop></linearGradient></defs><g transform="translate(1920, 1080)"><path d="M-972 0C-926.9 -115.2 -881.8 -230.3 -839.8 -347.9C-797.8 -465.4 -758.8 -585.3 -682.4 -682.4C-605.9 -779.4 -491.9 -853.6 -372 -898C-252 -942.5 -126 -957.2 0 -972L0 0Z" fill="#FFE5B4"></path></g><g transform="translate(0, 0)"><path d="M972 0C962 130.2 952.1 260.3 898 372C843.9 483.6 745.8 576.8 645.6 645.6C545.4 714.4 443.2 759 335.2 809.3C227.3 859.7 113.6 915.8 0 972L0 0Z" fill="#FFE5B4"></path></g></svg>